<svg width="146" height="95" viewBox="0 0 146 95" fill="none" xmlns="http://www.w3.org/2000/svg">
<rect y="17" width="88" height="60" fill="#9F1919"/>
<path d="M14.709 31.7734C14.709 29.8073 14.7383 28.2969 14.7969 27.2422H14.7871L13.3906 27.0371C13.306 26.7962 13.2409 26.5293 13.1953 26.2363C13.1497 25.9434 13.127 25.6602 13.127 25.3867C13.127 25.1784 13.1432 24.9505 13.1758 24.7031C13.9766 24.4167 15.0801 24.2051 16.4863 24.0684C17.8926 23.9316 19.2467 23.8633 20.5488 23.8633C21.5449 23.8633 22.401 23.9414 23.1172 24.0977C23.8333 24.2539 24.4323 24.6087 24.9141 25.1621C25.4023 25.709 25.6465 26.5293 25.6465 27.623C25.6465 28.1699 25.5293 28.8079 25.2949 29.5371C25.0671 30.2598 24.7741 30.9661 24.416 31.6562C24.0645 32.3398 23.7096 32.8932 23.3516 33.3164C22.8242 33.9479 22.2383 34.319 21.5938 34.4297C20.526 34.599 19.3965 34.6836 18.2051 34.6836C18.179 35.3542 18.1693 35.8359 18.1758 36.1289L19.6309 36.0312C19.9303 36.5195 20.0964 37.099 20.1289 37.7695C20.1289 37.8021 19.9824 37.9421 19.6895 38.1895C19.3965 38.4368 19.0091 38.6647 18.5273 38.873C18.0521 39.0814 17.5052 39.1855 16.8867 39.1855C16.2747 39.1855 15.7865 39.0195 15.4219 38.6875C15.0638 38.349 14.8848 37.7663 14.8848 36.9395C14.7741 35.5853 14.7188 33.8665 14.7188 31.7832L14.709 31.7734ZM20.8906 31.9395C21.0599 31.2233 21.1999 30.4648 21.3105 29.6641C21.4277 28.8568 21.4928 28.1536 21.5059 27.5547C21.4733 27.4961 21.3073 27.444 21.0078 27.3984C20.7083 27.3529 20.321 27.3301 19.8457 27.3301C19.5137 27.3301 19.1003 27.3431 18.6055 27.3691C18.5469 29.3353 18.4688 30.9141 18.3711 32.1055L20.8906 31.9395ZM29.4941 32.5645C29.8783 32.5645 30.3014 32.6035 30.7637 32.6816C31.2324 32.7598 31.6621 32.8542 32.0527 32.9648V32.6621C32.0527 32.4603 32.0462 32.2357 32.0332 31.9883C32.0267 31.7409 32.0137 31.5781 31.9941 31.5C31.9355 31.3893 31.7663 31.2754 31.4863 31.1582C31.2129 31.041 30.7637 30.9824 30.1387 30.9824C29.7546 30.9824 29.3574 31.0312 28.9473 31.1289C28.5436 31.2201 28.0944 31.3438 27.5996 31.5C27.3327 31.0573 27.1178 30.6374 26.9551 30.2402C26.7988 29.8366 26.7207 29.4329 26.7207 29.0293C26.7207 28.9056 26.7305 28.7819 26.75 28.6582C27.8047 27.8379 29.1686 27.4277 30.8418 27.4277C31.7663 27.4277 32.5866 27.5319 33.3027 27.7402C34.0189 27.9486 34.6081 28.3522 35.0703 28.9512C35.5326 29.5501 35.7637 30.3997 35.7637 31.5C35.7637 32.5742 35.6367 33.6159 35.3828 34.625C35.1354 35.6276 35.0085 36.1387 35.002 36.1582L36.418 35.5527C36.6068 35.7546 36.7728 36.002 36.916 36.2949C37.0658 36.5814 37.1602 36.9134 37.1992 37.291C37.1081 37.4863 36.9095 37.737 36.6035 38.043C36.2975 38.3424 35.9232 38.6094 35.4805 38.8438C35.0378 39.0781 34.5755 39.1953 34.0938 39.1953C33.5534 39.1953 33.1432 39.0358 32.8633 38.7168C32.5898 38.3978 32.4531 37.9844 32.4531 37.4766C32.4531 37.1901 32.4954 36.9004 32.5801 36.6074L32.2871 36.5195C32.1048 37.5482 31.7174 38.2513 31.125 38.6289C30.5326 39.0065 29.8783 39.1953 29.1621 39.1953C28.6934 39.1953 28.2409 39.0651 27.8047 38.8047C27.3685 38.5378 27.0137 38.1536 26.7402 37.6523C26.4668 37.1445 26.3301 36.5521 26.3301 35.875C26.3301 34.7943 26.6003 33.974 27.1406 33.4141C27.681 32.8477 28.4655 32.5645 29.4941 32.5645ZM30.6074 36.2852C30.7702 36.2526 30.9622 36.1615 31.1836 36.0117C31.4115 35.862 31.6133 35.6829 31.7891 35.4746C31.9648 35.2663 32.069 35.0677 32.1016 34.8789L32.043 34.6445C31.6979 34.599 31.3301 34.5762 30.9395 34.5762C30.6074 34.5762 30.3796 34.6022 30.2559 34.6543C30.0475 34.8887 29.9434 35.1491 29.9434 35.4355C29.9434 35.6439 29.9954 35.8327 30.0996 36.002C30.2103 36.1712 30.3796 36.2656 30.6074 36.2852ZM38.6152 35.6016C38.6152 34.5404 38.6283 33.7396 38.6543 33.1992C38.6803 32.6523 38.7487 31.8516 38.8594 30.7969L37.7266 30.6504C37.5898 30.2272 37.4987 29.8496 37.4531 29.5176C37.4141 29.1855 37.3945 28.7559 37.3945 28.2285C37.4987 28.1374 37.6712 28.0299 37.9121 27.9062C38.1595 27.776 38.4525 27.6654 38.791 27.5742C39.1296 27.4766 39.4714 27.4277 39.8164 27.4277C40.6042 27.4277 41.1608 27.597 41.4863 27.9355C41.8184 28.2741 41.9844 28.7819 41.9844 29.459C41.9844 29.8366 41.929 30.3477 41.8184 30.9922C41.6361 32.0273 41.5449 32.571 41.5449 32.623C41.5449 32.6556 41.5677 32.6882 41.6133 32.7207C41.6589 32.7467 41.7077 32.7598 41.7598 32.7598C41.8184 32.7598 41.8574 32.737 41.877 32.6914C42.1374 31.6562 42.3978 30.7904 42.6582 30.0938C42.9186 29.3971 43.3125 28.7786 43.8398 28.2383C44.3672 27.6979 45.0508 27.4277 45.8906 27.4277C46.9323 27.4277 47.681 27.7467 48.1367 28.3848C48.5924 29.0163 48.8203 29.8138 48.8203 30.7773C48.8203 31.6367 48.7194 32.4668 48.5176 33.2676C48.3158 34.0618 48.0651 34.8919 47.7656 35.7578C47.7786 35.7253 47.7331 35.8522 47.6289 36.1387L47.6484 36.1582L49.0742 35.5723C49.582 36.0085 49.8783 36.5879 49.9629 37.3105C49.9629 37.3561 49.8164 37.5417 49.5234 37.8672C49.237 38.1927 48.8561 38.4954 48.3809 38.7754C47.9056 39.0553 47.3587 39.1953 46.7402 39.1953C46.1217 39.1953 45.6172 39.0293 45.2266 38.6973C44.8359 38.3652 44.6406 37.7988 44.6406 36.998C44.6406 36.36 44.6667 35.5072 44.7188 34.4395C44.7708 33.3717 44.8229 32.5124 44.875 31.8613C44.7057 31.679 44.4974 31.5814 44.25 31.5684C44.0221 31.8613 43.6868 32.4473 43.2441 33.3262C42.8014 34.2051 42.4889 34.8626 42.3066 35.2988C42.2936 35.39 42.2871 35.4779 42.2871 35.5625C42.2871 35.888 42.3359 36.3275 42.4336 36.8809C42.5312 37.4277 42.6517 37.9388 42.7949 38.4141C42.6777 38.6354 42.4368 38.821 42.0723 38.9707C41.7077 39.1204 41.2585 39.1953 40.7246 39.1953C40.2428 39.1953 39.8555 39.1562 39.5625 39.0781C39.276 39 39.0742 38.9186 38.957 38.834C38.8398 38.7428 38.7812 38.6875 38.7812 38.668C38.7747 38.6094 38.7585 38.4564 38.7324 38.209C38.7064 37.9551 38.6803 37.6035 38.6543 37.1543C38.6283 36.6986 38.6152 36.181 38.6152 35.6016ZM51.5059 33.6094C51.5059 32.5482 51.5221 31.5814 51.5547 30.709L50.4902 30.5234C50.4056 30.1979 50.347 29.9115 50.3145 29.6641C50.2819 29.4167 50.2656 29.153 50.2656 28.873L50.2852 28.6777C50.3047 28.5866 50.3145 28.5117 50.3145 28.4531L51.7305 28.1406C51.763 27.737 51.8379 27.2812 51.9551 26.7734C52.0723 26.2656 52.196 25.8913 52.3262 25.6504C52.5345 25.4941 52.7852 25.377 53.0781 25.2988C53.3711 25.2207 53.6868 25.1816 54.0254 25.1816C54.3118 25.1816 54.5885 25.2109 54.8555 25.2695C55.1289 25.3216 55.3665 25.3932 55.5684 25.4844C55.5879 25.7057 55.5977 25.9596 55.5977 26.2461C55.5977 26.7148 55.5749 27.2454 55.5293 27.8379L57.248 27.5254C57.4889 27.9421 57.6094 28.3945 57.6094 28.8828C57.6094 29.2214 57.5671 29.5273 57.4824 29.8008C57.4043 30.0742 57.2936 30.3835 57.1504 30.7285C56.7207 30.8001 56.1315 30.8457 55.3828 30.8652C55.2917 31.9264 55.0898 33.4857 54.7773 35.543L54.7285 35.875L54.748 35.8945L57.043 35.1816C57.5182 35.5788 57.8079 36.1908 57.9121 37.0176C57.9121 37.0632 57.7005 37.278 57.2773 37.6621C56.8607 38.0397 56.3366 38.3913 55.7051 38.7168C55.0736 39.0358 54.3867 39.1953 53.6445 39.1953C52.349 39.1953 51.6589 38.4043 51.5742 36.8223C51.5286 36.0215 51.5059 34.9505 51.5059 33.6094ZM59.5723 36.3828C59.5723 36.1029 59.5788 35.416 59.5918 34.3223C59.6113 32.1738 59.6211 30.9987 59.6211 30.7969L58.7227 30.6504C58.599 30.2793 58.5111 29.931 58.459 29.6055C58.4069 29.2799 58.3809 28.9512 58.3809 28.6191C58.3809 28.4824 58.3841 28.3783 58.3906 28.3066C58.5013 28.209 58.6738 28.0918 58.9082 27.9551C59.1426 27.8184 59.4193 27.6979 59.7383 27.5938C60.0573 27.4831 60.3828 27.4277 60.7148 27.4277C61.4896 27.4277 62.0495 27.6003 62.3945 27.9453C62.7461 28.2904 62.9219 28.7949 62.9219 29.459C62.9219 29.8626 62.8698 30.3802 62.7656 31.0117C62.668 31.6367 62.5671 32.0827 62.4629 32.3496L62.8145 32.4082L63.4004 30.2012C63.6608 29.2051 63.9863 28.4954 64.377 28.0723C64.7676 27.6426 65.207 27.4277 65.6953 27.4277C66.0143 27.4277 66.3301 27.4766 66.6426 27.5742C66.9616 27.6719 67.2057 27.7923 67.375 27.9355C67.5573 28.3392 67.6484 28.8763 67.6484 29.5469C67.6484 30.0156 67.6029 30.4811 67.5117 30.9434C67.4206 31.3991 67.3034 31.7669 67.1602 32.0469L65.1094 31.7734C64.6927 32.2161 64.25 32.8314 63.7812 33.6191C63.3125 34.4004 62.9382 35.1198 62.6582 35.7773L62.6484 36.2852L64.543 35.8359C64.862 36.3242 65.0475 36.9036 65.0996 37.5742C65.0996 37.6133 64.9531 37.7728 64.6602 38.0527C64.3672 38.3327 63.9798 38.5931 63.498 38.834C63.0228 39.0684 62.4759 39.1855 61.8574 39.1855C61.2194 39.1855 60.6855 39.0163 60.2559 38.6777C59.8327 38.3327 59.6081 37.7533 59.582 36.9395C59.5755 36.8418 59.5723 36.6562 59.5723 36.3828ZM71.8281 37.7793C71.7044 37.2975 71.4733 36.6009 71.1348 35.6895C70.7962 34.7715 70.4414 33.8893 70.0703 33.043C69.6992 32.1966 69.4062 31.6139 69.1914 31.2949L68.293 31.1387C68.2018 30.8848 68.1302 30.6048 68.0781 30.2988C68.0326 29.9863 67.9935 29.625 67.9609 29.2148C68.0716 28.9089 68.2409 28.6191 68.4688 28.3457C68.6966 28.0723 68.9701 27.8509 69.2891 27.6816C69.6146 27.5124 69.9661 27.4277 70.3438 27.4277C70.9622 27.4277 71.4733 27.6035 71.877 27.9551C72.2871 28.3001 72.6029 28.7363 72.8242 29.2637C73.0521 29.7845 73.2507 30.3997 73.4199 31.1094C73.765 32.4831 73.9863 34.1855 74.084 36.2168L74.2988 36.1777C74.5527 35.6113 74.7676 34.8008 74.9434 33.7461C75.1257 32.6914 75.2233 31.679 75.2363 30.709L74.0156 30.5234C73.8724 29.9766 73.8008 29.3353 73.8008 28.5996C73.944 28.4238 74.1491 28.248 74.416 28.0723C74.6895 27.89 75.0117 27.737 75.3828 27.6133C75.7539 27.4896 76.1478 27.4277 76.5645 27.4277C78.2441 27.4277 79.084 28.2708 79.084 29.957C79.084 31.2852 78.8431 32.5742 78.3613 33.8242C77.8861 35.0742 77.1699 36.2038 76.2129 37.2129C75.2559 38.222 74.0905 39.0163 72.7168 39.5957L72.7949 39.918C72.9707 39.9375 73.1432 39.9473 73.3125 39.9473C73.8659 39.9473 74.5332 39.8561 75.3145 39.6738C75.7572 40.1686 75.9785 40.709 75.9785 41.2949C75.9785 41.4707 75.959 41.6497 75.9199 41.832C75.5293 42.2096 75.041 42.5352 74.4551 42.8086C73.8691 43.082 73.2246 43.2188 72.5215 43.2188C71.4993 43.2188 70.6725 42.9876 70.041 42.5254C69.4095 42.0632 69.0938 41.36 69.0938 40.416C69.0938 39.9928 69.2207 39.6217 69.4746 39.3027C69.735 38.9902 70.0345 38.7363 70.373 38.541C70.7181 38.3392 71.2031 38.0853 71.8281 37.7793ZM13.9551 64.9609C13.9551 64.3242 13.9629 63.8438 13.9785 63.5195C13.9941 63.1914 14.0352 62.7109 14.1016 62.0781L13.4219 61.9902C13.3398 61.7363 13.2852 61.5098 13.2578 61.3105C13.2344 61.1113 13.2227 60.8535 13.2227 60.5371C13.2852 60.4824 13.3887 60.418 13.5332 60.3438C13.6816 60.2656 13.8574 60.1992 14.0605 60.1445C14.2637 60.0859 14.4688 60.0566 14.6758 60.0566C15.1484 60.0566 15.4824 60.1582 15.6777 60.3613C15.877 60.5645 15.9766 60.8691 15.9766 61.2754C15.9766 61.502 15.9434 61.8086 15.877 62.1953C15.7676 62.8164 15.7129 63.1426 15.7129 63.1738C15.7129 63.1934 15.7266 63.2129 15.7539 63.2324C15.7812 63.248 15.8105 63.2559 15.8418 63.2559C15.877 63.2559 15.9004 63.2422 15.9121 63.2148C16.0684 62.5938 16.2246 62.0742 16.3809 61.6562C16.5371 61.2383 16.7734 60.8672 17.0898 60.543C17.4062 60.2188 17.8164 60.0566 18.3203 60.0566C18.9453 60.0566 19.3945 60.248 19.668 60.6309C19.9414 61.0098 20.0781 61.4883 20.0781 62.0664C20.0781 62.582 20.0176 63.0801 19.8965 63.5605C19.7754 64.0371 19.625 64.5352 19.4453 65.0547C19.4531 65.0352 19.4258 65.1113 19.3633 65.2832L19.375 65.2949L20.2305 64.9434C20.5352 65.2051 20.7129 65.5527 20.7637 65.9863C20.7637 66.0137 20.6758 66.125 20.5 66.3203C20.3281 66.5156 20.0996 66.6973 19.8145 66.8652C19.5293 67.0332 19.2012 67.1172 18.8301 67.1172C18.459 67.1172 18.1562 67.0176 17.9219 66.8184C17.6875 66.6191 17.5703 66.2793 17.5703 65.7988C17.5703 65.416 17.5859 64.9043 17.6172 64.2637C17.6484 63.623 17.6797 63.1074 17.7109 62.7168C17.6094 62.6074 17.4844 62.5488 17.3359 62.541C17.1992 62.7168 16.998 63.0684 16.7324 63.5957C16.4668 64.123 16.2793 64.5176 16.1699 64.7793C16.1621 64.834 16.1582 64.8867 16.1582 64.9375C16.1582 65.1328 16.1875 65.3965 16.2461 65.7285C16.3047 66.0566 16.377 66.3633 16.4629 66.6484C16.3926 66.7812 16.248 66.8926 16.0293 66.9824C15.8105 67.0723 15.541 67.1172 15.2207 67.1172C14.9316 67.1172 14.6992 67.0938 14.5234 67.0469C14.3516 67 14.2305 66.9512 14.1602 66.9004C14.0898 66.8457 14.0547 66.8125 14.0547 66.8008C14.0508 66.7656 14.041 66.6738 14.0254 66.5254C14.0098 66.373 13.9941 66.1621 13.9785 65.8926C13.9629 65.6191 13.9551 65.3086 13.9551 64.9609ZM21.8125 57.6367C21.9688 57.5977 22.1348 57.5781 22.3105 57.5781C22.6895 57.5781 23.0176 57.668 23.2949 57.8477C23.5762 58.0273 23.7461 58.2871 23.8047 58.627C23.6836 58.9043 23.5039 59.2129 23.2656 59.5527C23.0273 59.8887 22.7676 60.2051 22.4863 60.502C22.209 60.7988 21.9492 61.0293 21.707 61.1934L20.9336 60.7012L21.8125 57.6367ZM29.6543 59.5391C29.6543 58.0547 29.8691 56.7396 30.2988 55.5938C30.7285 54.4414 31.4056 53.5332 32.3301 52.8691C33.2611 52.1986 34.4427 51.8633 35.875 51.8633C36.3828 51.8633 36.9329 51.8958 37.5254 51.9609C38.1178 52.0195 38.6973 52.1139 39.2637 52.2441C39.6152 52.4525 39.9212 52.6706 40.1816 52.8984C40.4486 53.1198 40.7025 53.39 40.9434 53.709C40.9434 54.1712 40.8815 54.7832 40.7578 55.5449C40.6341 56.3066 40.4779 57.0163 40.2891 57.6738C40.1068 58.3314 39.931 58.7578 39.7617 58.9531C39.5924 59.0378 39.4492 59.0964 39.332 59.1289C39.2148 59.1549 39.0326 59.168 38.7852 59.168C38.4792 59.168 38.1927 59.1452 37.9258 59.0996C37.6589 59.054 37.457 58.9922 37.3203 58.9141L36.9785 55.623C36.5163 55.4928 35.7773 55.4277 34.7617 55.4277C34.5404 55.4277 34.3776 55.431 34.2734 55.4375C33.9935 56.3359 33.8372 57.5436 33.8047 59.0605V59.4414C33.8047 60.4115 33.8665 61.2676 33.9902 62.0098C34.0749 62.498 34.1465 62.8724 34.2051 63.1328C34.2702 63.3932 34.3483 63.5951 34.4395 63.7383C34.5371 63.875 34.6576 63.9434 34.8008 63.9434C35.3086 63.9434 35.7611 63.7676 36.1582 63.416C36.5618 63.0645 36.9069 62.6152 37.1934 62.0684L36.9297 60.6719C37.7826 60.3854 38.6257 60.2389 39.459 60.2324C39.8626 60.2324 40.2142 60.278 40.5137 60.3691C40.8132 60.4603 41.015 60.6393 41.1191 60.9062C40.9954 61.8698 40.7969 63.0514 40.5234 64.4512C40.25 65.8509 40.0449 66.7005 39.9082 67C39.4915 67.1302 39.0879 67.1953 38.6973 67.1953C38.4954 67.1953 38.2806 67.179 38.0527 67.1465C37.8314 67.1139 37.6361 67.0651 37.4668 67C37.4668 66.7852 37.4473 66.2741 37.4082 65.4668L37.3789 64.7441L37.1152 64.666C36.666 65.4212 36.1615 66.0332 35.6016 66.502C35.0417 66.9642 34.4329 67.1953 33.7754 67.1953C32.929 67.1953 32.1966 66.8828 31.5781 66.2578C30.9596 65.6328 30.4844 64.7441 30.1523 63.5918C29.8203 62.4329 29.6543 61.082 29.6543 59.5391ZM42.252 61.2285C42.252 60.0501 42.4408 59.028 42.8184 58.1621C43.196 57.2962 43.7754 56.6257 44.5566 56.1504C45.3379 55.6686 46.3177 55.4277 47.4961 55.4277C48.7982 55.4277 49.8203 55.6719 50.5625 56.1602C51.3047 56.6419 51.8223 57.3125 52.1152 58.1719C52.4147 59.0312 52.5645 60.0827 52.5645 61.3262C52.5645 62.4525 52.3659 63.4583 51.9688 64.3438C51.5781 65.2227 50.9857 65.9193 50.1914 66.4336C49.4036 66.9414 48.4368 67.1953 47.291 67.1953C45.5202 67.1953 44.2376 66.6517 43.4434 65.5645C42.6491 64.4707 42.252 63.0254 42.252 61.2285ZM47.6914 64.334C48.0234 64.334 48.2253 64.3079 48.2969 64.2559C48.4466 63.9954 48.5605 63.6276 48.6387 63.1523C48.7168 62.6771 48.7559 62.1628 48.7559 61.6094C48.7559 61.1016 48.7233 60.6263 48.6582 60.1836C48.5931 59.7344 48.502 59.3828 48.3848 59.1289C48.3132 59.0443 48.1699 58.9824 47.9551 58.9434C47.7402 58.8978 47.5059 58.875 47.252 58.875C46.9199 58.875 46.6921 58.9108 46.5684 58.9824C46.2428 59.5423 46.0801 60.3203 46.0801 61.3164C46.0801 61.7852 46.1159 62.2637 46.1875 62.752C46.2591 63.2402 46.3503 63.6829 46.4609 64.0801C46.5391 64.1647 46.6986 64.2298 46.9395 64.2754C47.1803 64.3145 47.431 64.334 47.6914 64.334Z" fill="white"/>
</svg>
