<svg width="201" height="155" viewBox="0 0 201 155" fill="none" xmlns="http://www.w3.org/2000/svg">
<rect width="201" height="155" fill="#E5E5E5"/>
<rect width="201" height="155" fill="#FEFEFE"/>
<path d="M37.418 49.5469C37.418 45.6146 37.4766 42.5938 37.5938 40.4844H37.5742L34.7812 40.0742C34.612 39.5924 34.4818 39.0586 34.3906 38.4727C34.2995 37.8867 34.2539 37.3203 34.2539 36.7734C34.2539 36.3568 34.2865 35.901 34.3516 35.4062C35.9531 34.8333 38.1602 34.4102 40.9727 34.1367C43.7852 33.8633 46.4935 33.7266 49.0977 33.7266C51.0898 33.7266 52.8021 33.8828 54.2344 34.1953C55.6667 34.5078 56.8646 35.2174 57.8281 36.3242C58.8047 37.418 59.293 39.0586 59.293 41.2461C59.293 42.3398 59.0586 43.6159 58.5898 45.0742C58.1341 46.5195 57.5482 47.9323 56.832 49.3125C56.1289 50.6797 55.4193 51.7865 54.7031 52.6328C53.6484 53.8958 52.4766 54.638 51.1875 54.8594C49.0521 55.1979 46.793 55.3672 44.4102 55.3672C44.3581 56.7083 44.3385 57.6719 44.3516 58.2578L47.2617 58.0625C47.8607 59.0391 48.1927 60.1979 48.2578 61.5391C48.2578 61.6042 47.9648 61.8841 47.3789 62.3789C46.793 62.8737 46.0182 63.3294 45.0547 63.7461C44.1042 64.1628 43.0104 64.3711 41.7734 64.3711C40.5495 64.3711 39.5729 64.0391 38.8438 63.375C38.1276 62.6979 37.7695 61.5326 37.7695 59.8789C37.5482 57.1706 37.4375 53.7331 37.4375 49.5664L37.418 49.5469ZM49.7812 49.8789C50.1198 48.4466 50.3997 46.9297 50.6211 45.3281C50.8555 43.7135 50.9857 42.3073 51.0117 41.1094C50.9466 40.9922 50.6146 40.888 50.0156 40.7969C49.4167 40.7057 48.6419 40.6602 47.6914 40.6602C47.0273 40.6602 46.2005 40.6862 45.2109 40.7383C45.0938 44.6706 44.9375 47.8281 44.7422 50.2109L49.7812 49.8789ZM66.9883 51.1289C67.7565 51.1289 68.6029 51.207 69.5273 51.3633C70.4648 51.5195 71.3242 51.7083 72.1055 51.9297V51.3242C72.1055 50.9206 72.0924 50.4714 72.0664 49.9766C72.0534 49.4818 72.0273 49.1562 71.9883 49C71.8711 48.7786 71.5326 48.5508 70.9727 48.3164C70.4258 48.082 69.5273 47.9648 68.2773 47.9648C67.5091 47.9648 66.7148 48.0625 65.8945 48.2578C65.0872 48.4401 64.1888 48.6875 63.1992 49C62.6654 48.1146 62.2357 47.2747 61.9102 46.4805C61.5977 45.6732 61.4414 44.8659 61.4414 44.0586C61.4414 43.8112 61.4609 43.5638 61.5 43.3164C63.6094 41.6758 66.3372 40.8555 69.6836 40.8555C71.5326 40.8555 73.1732 41.0638 74.6055 41.4805C76.0378 41.8971 77.2161 42.7044 78.1406 43.9023C79.0651 45.1003 79.5273 46.7995 79.5273 49C79.5273 51.1484 79.2734 53.2318 78.7656 55.25C78.2708 57.2552 78.0169 58.2773 78.0039 58.3164L80.8359 57.1055C81.2135 57.5091 81.5456 58.0039 81.832 58.5898C82.1315 59.1628 82.3203 59.8268 82.3984 60.582C82.2161 60.9727 81.819 61.474 81.207 62.0859C80.5951 62.6849 79.8464 63.2188 78.9609 63.6875C78.0755 64.1562 77.151 64.3906 76.1875 64.3906C75.1068 64.3906 74.2865 64.0716 73.7266 63.4336C73.1797 62.7956 72.9062 61.9688 72.9062 60.9531C72.9062 60.3802 72.9909 59.8008 73.1602 59.2148L72.5742 59.0391C72.2096 61.0964 71.4349 62.5026 70.25 63.2578C69.0651 64.013 67.7565 64.3906 66.3242 64.3906C65.3867 64.3906 64.4818 64.1302 63.6094 63.6094C62.737 63.0755 62.0273 62.3073 61.4805 61.3047C60.9336 60.2891 60.6602 59.1042 60.6602 57.75C60.6602 55.5885 61.2005 53.9479 62.2812 52.8281C63.362 51.6953 64.931 51.1289 66.9883 51.1289ZM69.2148 58.5703C69.5404 58.5052 69.9245 58.3229 70.3672 58.0234C70.8229 57.724 71.2266 57.3659 71.5781 56.9492C71.9297 56.5326 72.138 56.1354 72.2031 55.7578L72.0859 55.2891C71.3958 55.1979 70.6602 55.1523 69.8789 55.1523C69.2148 55.1523 68.7591 55.2044 68.5117 55.3086C68.0951 55.7773 67.8867 56.2982 67.8867 56.8711C67.8867 57.2878 67.9909 57.6654 68.1992 58.0039C68.4206 58.3424 68.7591 58.5312 69.2148 58.5703ZM85.2305 57.2031C85.2305 55.0807 85.2565 53.4792 85.3086 52.3984C85.3607 51.3047 85.4974 49.7031 85.7188 47.5938L83.4531 47.3008C83.1797 46.4544 82.9974 45.6992 82.9062 45.0352C82.8281 44.3711 82.7891 43.5117 82.7891 42.457C82.9974 42.2747 83.3424 42.0599 83.8242 41.8125C84.319 41.5521 84.9049 41.3307 85.582 41.1484C86.2591 40.9531 86.9427 40.8555 87.6328 40.8555C89.2083 40.8555 90.3216 41.194 90.9727 41.8711C91.6367 42.5482 91.9688 43.5638 91.9688 44.918C91.9688 45.6732 91.8581 46.6953 91.6367 47.9844C91.2721 50.0547 91.0898 51.1419 91.0898 51.2461C91.0898 51.3112 91.1354 51.3763 91.2266 51.4414C91.3177 51.4935 91.4154 51.5195 91.5195 51.5195C91.6367 51.5195 91.7148 51.474 91.7539 51.3828C92.2747 49.3125 92.7956 47.5807 93.3164 46.1875C93.8372 44.7943 94.625 43.5573 95.6797 42.4766C96.7344 41.3958 98.1016 40.8555 99.7812 40.8555C101.865 40.8555 103.362 41.4935 104.273 42.7695C105.185 44.0326 105.641 45.6276 105.641 47.5547C105.641 49.2734 105.439 50.9336 105.035 52.5352C104.632 54.1237 104.13 55.7839 103.531 57.5156C103.557 57.4505 103.466 57.7044 103.258 58.2773L103.297 58.3164L106.148 57.1445C107.164 58.0169 107.757 59.1758 107.926 60.6211C107.926 60.7122 107.633 61.0833 107.047 61.7344C106.474 62.3854 105.712 62.9909 104.762 63.5508C103.811 64.1107 102.717 64.3906 101.48 64.3906C100.243 64.3906 99.2344 64.0586 98.4531 63.3945C97.6719 62.7305 97.2812 61.5977 97.2812 59.9961C97.2812 58.7201 97.3333 57.0143 97.4375 54.8789C97.5417 52.7435 97.6458 51.0247 97.75 49.7227C97.4115 49.3581 96.9948 49.1628 96.5 49.1367C96.0443 49.7227 95.3737 50.8945 94.4883 52.6523C93.6029 54.4102 92.9779 55.7253 92.6133 56.5977C92.5872 56.7799 92.5742 56.9557 92.5742 57.125C92.5742 57.776 92.6719 58.6549 92.8672 59.7617C93.0625 60.8555 93.3034 61.8776 93.5898 62.8281C93.3555 63.2708 92.8737 63.6419 92.1445 63.9414C91.4154 64.2409 90.5169 64.3906 89.4492 64.3906C88.4857 64.3906 87.7109 64.3125 87.125 64.1562C86.5521 64 86.1484 63.8372 85.9141 63.668C85.6797 63.4857 85.5625 63.375 85.5625 63.3359C85.5495 63.2188 85.5169 62.9128 85.4648 62.418C85.4128 61.9102 85.3607 61.207 85.3086 60.3086C85.2565 59.3971 85.2305 58.362 85.2305 57.2031ZM111.012 53.2188C111.012 51.0964 111.044 49.1628 111.109 47.418L108.98 47.0469C108.811 46.3958 108.694 45.8229 108.629 45.3281C108.564 44.8333 108.531 44.306 108.531 43.7461L108.57 43.3555C108.609 43.1732 108.629 43.0234 108.629 42.9062L111.461 42.2812C111.526 41.474 111.676 40.5625 111.91 39.5469C112.145 38.5312 112.392 37.7826 112.652 37.3008C113.069 36.9883 113.57 36.7539 114.156 36.5977C114.742 36.4414 115.374 36.3633 116.051 36.3633C116.624 36.3633 117.177 36.4219 117.711 36.5391C118.258 36.6432 118.733 36.7865 119.137 36.9688C119.176 37.4115 119.195 37.9193 119.195 38.4922C119.195 39.4297 119.15 40.4909 119.059 41.6758L122.496 41.0508C122.978 41.8841 123.219 42.7891 123.219 43.7656C123.219 44.4427 123.134 45.0547 122.965 45.6016C122.809 46.1484 122.587 46.7669 122.301 47.457C121.441 47.6003 120.263 47.6914 118.766 47.7305C118.583 49.8529 118.18 52.9714 117.555 57.0859L117.457 57.75L117.496 57.7891L122.086 56.3633C123.036 57.1576 123.616 58.3815 123.824 60.0352C123.824 60.1263 123.401 60.556 122.555 61.3242C121.721 62.0794 120.673 62.7826 119.41 63.4336C118.147 64.0716 116.773 64.3906 115.289 64.3906C112.698 64.3906 111.318 62.8086 111.148 59.6445C111.057 58.043 111.012 55.901 111.012 53.2188ZM127.145 58.7656C127.145 58.2057 127.158 56.832 127.184 54.6445C127.223 50.3477 127.242 47.9974 127.242 47.5938L125.445 47.3008C125.198 46.5586 125.022 45.862 124.918 45.2109C124.814 44.5599 124.762 43.9023 124.762 43.2383C124.762 42.9648 124.768 42.7565 124.781 42.6133C125.003 42.418 125.348 42.1836 125.816 41.9102C126.285 41.6367 126.839 41.3958 127.477 41.1875C128.115 40.9661 128.766 40.8555 129.43 40.8555C130.979 40.8555 132.099 41.2005 132.789 41.8906C133.492 42.5807 133.844 43.5898 133.844 44.918C133.844 45.7253 133.74 46.7604 133.531 48.0234C133.336 49.2734 133.134 50.1654 132.926 50.6992L133.629 50.8164L134.801 46.4023C135.322 44.4102 135.973 42.9909 136.754 42.1445C137.535 41.2852 138.414 40.8555 139.391 40.8555C140.029 40.8555 140.66 40.9531 141.285 41.1484C141.923 41.3438 142.411 41.5846 142.75 41.8711C143.115 42.6784 143.297 43.7526 143.297 45.0938C143.297 46.0312 143.206 46.9622 143.023 47.8867C142.841 48.7982 142.607 49.5339 142.32 50.0938L138.219 49.5469C137.385 50.4323 136.5 51.6628 135.562 53.2383C134.625 54.8008 133.876 56.2396 133.316 57.5547L133.297 58.5703L137.086 57.6719C137.724 58.6484 138.095 59.8073 138.199 61.1484C138.199 61.2266 137.906 61.5456 137.32 62.1055C136.734 62.6654 135.96 63.1862 134.996 63.668C134.046 64.1367 132.952 64.3711 131.715 64.3711C130.439 64.3711 129.371 64.0326 128.512 63.3555C127.665 62.6654 127.216 61.5065 127.164 59.8789C127.151 59.6836 127.145 59.3125 127.145 58.7656ZM151.656 61.5586C151.409 60.5951 150.947 59.2018 150.27 57.3789C149.592 55.543 148.883 53.7786 148.141 52.0859C147.398 50.3932 146.812 49.2279 146.383 48.5898L144.586 48.2773C144.404 47.7695 144.26 47.2096 144.156 46.5977C144.065 45.9727 143.987 45.25 143.922 44.4297C144.143 43.8177 144.482 43.2383 144.938 42.6914C145.393 42.1445 145.94 41.7018 146.578 41.3633C147.229 41.0247 147.932 40.8555 148.688 40.8555C149.924 40.8555 150.947 41.207 151.754 41.9102C152.574 42.6003 153.206 43.4727 153.648 44.5273C154.104 45.569 154.501 46.7995 154.84 48.2188C155.53 50.9661 155.973 54.3711 156.168 58.4336L156.598 58.3555C157.105 57.2227 157.535 55.6016 157.887 53.4922C158.251 51.3828 158.447 49.3581 158.473 47.418L156.031 47.0469C155.745 45.9531 155.602 44.6706 155.602 43.1992C155.888 42.8477 156.298 42.4961 156.832 42.1445C157.379 41.7799 158.023 41.474 158.766 41.2266C159.508 40.9792 160.296 40.8555 161.129 40.8555C164.488 40.8555 166.168 42.5417 166.168 45.9141C166.168 48.5703 165.686 51.1484 164.723 53.6484C163.772 56.1484 162.34 58.4076 160.426 60.4258C158.512 62.444 156.181 64.0326 153.434 65.1914L153.59 65.8359C153.941 65.875 154.286 65.8945 154.625 65.8945C155.732 65.8945 157.066 65.7122 158.629 65.3477C159.514 66.3372 159.957 67.418 159.957 68.5898C159.957 68.9414 159.918 69.2995 159.84 69.6641C159.059 70.4193 158.082 71.0703 156.91 71.6172C155.738 72.1641 154.449 72.4375 153.043 72.4375C150.999 72.4375 149.345 71.9753 148.082 71.0508C146.819 70.1263 146.188 68.7201 146.188 66.832C146.188 65.9857 146.441 65.2435 146.949 64.6055C147.47 63.9805 148.069 63.4727 148.746 63.082C149.436 62.6784 150.406 62.1706 151.656 61.5586ZM35.751 110.262C35.751 109.094 35.7653 108.214 35.7939 107.619C35.8226 107.018 35.8978 106.137 36.0195 104.977L34.7734 104.815C34.623 104.35 34.5228 103.935 34.4727 103.569C34.4297 103.204 34.4082 102.731 34.4082 102.151C34.5228 102.051 34.7126 101.933 34.9775 101.797C35.2497 101.654 35.5719 101.532 35.9443 101.432C36.3167 101.324 36.6927 101.271 37.0723 101.271C37.9388 101.271 38.5511 101.457 38.9092 101.829C39.2744 102.201 39.457 102.76 39.457 103.505C39.457 103.92 39.3962 104.482 39.2744 105.191C39.0739 106.33 38.9736 106.928 38.9736 106.985C38.9736 107.021 38.9987 107.057 39.0488 107.093C39.099 107.121 39.1527 107.136 39.21 107.136C39.2744 107.136 39.3174 107.111 39.3389 107.061C39.6253 105.922 39.9118 104.969 40.1982 104.203C40.4847 103.437 40.918 102.757 41.498 102.162C42.0781 101.568 42.8301 101.271 43.7539 101.271C44.8997 101.271 45.7233 101.621 46.2246 102.323C46.7259 103.018 46.9766 103.895 46.9766 104.955C46.9766 105.9 46.8656 106.813 46.6436 107.694C46.4215 108.568 46.1458 109.481 45.8164 110.434C45.8307 110.398 45.7806 110.537 45.666 110.853L45.6875 110.874L47.2559 110.229C47.8145 110.709 48.1403 111.347 48.2334 112.142C48.2334 112.192 48.0723 112.396 47.75 112.754C47.4349 113.112 47.016 113.445 46.4932 113.753C45.9704 114.061 45.3688 114.215 44.6885 114.215C44.0081 114.215 43.4531 114.032 43.0234 113.667C42.5938 113.302 42.3789 112.679 42.3789 111.798C42.3789 111.096 42.4076 110.158 42.4648 108.983C42.5221 107.809 42.5794 106.864 42.6367 106.147C42.4505 105.947 42.2214 105.84 41.9492 105.825C41.6986 106.147 41.3298 106.792 40.8428 107.759C40.3558 108.726 40.012 109.449 39.8115 109.929C39.7972 110.029 39.79 110.126 39.79 110.219C39.79 110.577 39.8438 111.06 39.9512 111.669C40.0586 112.271 40.1911 112.833 40.3486 113.355C40.2197 113.599 39.9548 113.803 39.5537 113.968C39.1527 114.132 38.6585 114.215 38.0713 114.215C37.5413 114.215 37.1152 114.172 36.793 114.086C36.4779 114 36.2559 113.91 36.127 113.817C35.998 113.717 35.9336 113.656 35.9336 113.635C35.9264 113.57 35.9085 113.402 35.8799 113.13C35.8512 112.851 35.8226 112.464 35.7939 111.97C35.7653 111.468 35.751 110.899 35.751 110.262ZM50.1562 96.834C50.4427 96.7624 50.7471 96.7266 51.0693 96.7266C51.764 96.7266 52.3656 96.8913 52.874 97.2207C53.3896 97.5501 53.7012 98.0264 53.8086 98.6494C53.5866 99.1579 53.2572 99.7236 52.8203 100.347C52.3835 100.963 51.9072 101.543 51.3916 102.087C50.8831 102.631 50.4069 103.054 49.9629 103.354L48.5449 102.452L50.1562 96.834ZM60.5957 99.0781C60.5957 96.1094 61.0254 93.4792 61.8848 91.1875C62.7441 88.8828 64.0983 87.0664 65.9473 85.7383C67.8092 84.3971 70.1725 83.7266 73.0371 83.7266C74.0527 83.7266 75.153 83.7917 76.3379 83.9219C77.5228 84.0391 78.6816 84.2279 79.8145 84.4883C80.5176 84.9049 81.1296 85.3411 81.6504 85.7969C82.1842 86.2396 82.6921 86.7799 83.1738 87.418C83.1738 88.3424 83.0501 89.5664 82.8027 91.0898C82.5553 92.6133 82.2428 94.0326 81.8652 95.3477C81.5007 96.6628 81.1491 97.5156 80.8105 97.9062C80.472 98.0755 80.1855 98.1927 79.9512 98.2578C79.7168 98.3099 79.3522 98.3359 78.8574 98.3359C78.2454 98.3359 77.6725 98.2904 77.1387 98.1992C76.6048 98.1081 76.2012 97.9844 75.9277 97.8281L75.2441 91.2461C74.3197 90.9857 72.8418 90.8555 70.8105 90.8555C70.3678 90.8555 70.0423 90.862 69.834 90.875C69.2741 92.6719 68.9616 95.0872 68.8965 98.1211V98.8828C68.8965 100.823 69.0202 102.535 69.2676 104.02C69.4368 104.996 69.5801 105.745 69.6973 106.266C69.8275 106.786 69.9837 107.19 70.166 107.477C70.3613 107.75 70.6022 107.887 70.8887 107.887C71.9043 107.887 72.8092 107.535 73.6035 106.832C74.4108 106.129 75.1009 105.23 75.6738 104.137L75.1465 101.344C76.8522 100.771 78.5384 100.478 80.2051 100.465C81.0124 100.465 81.7155 100.556 82.3145 100.738C82.9134 100.921 83.3171 101.279 83.5254 101.812C83.278 103.74 82.8809 106.103 82.334 108.902C81.7871 111.702 81.377 113.401 81.1035 114C80.2702 114.26 79.4629 114.391 78.6816 114.391C78.278 114.391 77.8483 114.358 77.3926 114.293C76.9499 114.228 76.5592 114.13 76.2207 114C76.2207 113.57 76.1816 112.548 76.1035 110.934L76.0449 109.488L75.5176 109.332C74.6191 110.842 73.61 112.066 72.4902 113.004C71.3704 113.928 70.153 114.391 68.8379 114.391C67.1452 114.391 65.6803 113.766 64.4434 112.516C63.2064 111.266 62.2559 109.488 61.5918 107.184C60.9277 104.866 60.5957 102.164 60.5957 99.0781ZM85.791 102.457C85.791 100.1 86.1686 98.056 86.9238 96.3242C87.679 94.5924 88.8379 93.2513 90.4004 92.3008C91.9629 91.3372 93.9225 90.8555 96.2793 90.8555C98.8835 90.8555 100.928 91.3438 102.412 92.3203C103.896 93.2839 104.932 94.625 105.518 96.3438C106.117 98.0625 106.416 100.165 106.416 102.652C106.416 104.905 106.019 106.917 105.225 108.688C104.443 110.445 103.258 111.839 101.67 112.867C100.094 113.883 98.1608 114.391 95.8691 114.391C92.3275 114.391 89.7624 113.303 88.1738 111.129C86.5853 108.941 85.791 106.051 85.791 102.457ZM96.6699 108.668C97.334 108.668 97.7376 108.616 97.8809 108.512C98.1803 107.991 98.4082 107.255 98.5645 106.305C98.7207 105.354 98.7988 104.326 98.7988 103.219C98.7988 102.203 98.7337 101.253 98.6035 100.367C98.4733 99.4688 98.291 98.7656 98.0566 98.2578C97.9134 98.0885 97.627 97.9648 97.1973 97.8867C96.7676 97.7956 96.2988 97.75 95.791 97.75C95.127 97.75 94.6712 97.8216 94.4238 97.9648C93.7728 99.0846 93.4473 100.641 93.4473 102.633C93.4473 103.57 93.5189 104.527 93.6621 105.504C93.8053 106.48 93.9876 107.366 94.209 108.16C94.3652 108.329 94.6842 108.46 95.166 108.551C95.6478 108.629 96.1491 108.668 96.6699 108.668Z" fill="#9F1919"/>
</svg>
